M48
; Drone Design Studio PTH drill file
; #@! TF.FileFunction,Plated,1,2,PTH
FMAT,2
METRIC
T1C0.300
T2C1.000
T3C1.300
%
G90
G05
T1
X10.910Y17.400
X9.810Y17.400
X8.710Y17.400
X10.910Y18.500
X9.810Y18.500
X8.710Y18.500
X10.910Y19.600
X9.810Y19.600
X8.710Y19.600
X35.500Y10.850
X34.000Y10.850
X35.500Y34.350
X34.000Y34.350
X10.850Y34.000
X10.850Y35.500
X7.250Y9.600
X5.750Y9.600
X23.250Y16.425
X21.788Y15.137
X20.981Y12.326
X24.212Y10.863
X25.019Y12.326
X1.125Y12.375
X1.125Y29.175
X35.375Y6.775
X35.375Y31.125
X6.825Y34.125
X7.125Y5.525
X32.475Y3.975
X32.475Y35.075
X4.125Y32.475
X9.725Y3.225
X33.875Y19.525
X34.125Y16.975
X34.125Y23.975
X31.725Y20.575
X29.975Y20.875
X12.125Y30.875
X2.975Y31.825
X15.725Y7.425
X27.725Y19.575
X23.975Y23.725
X23.725Y9.725
X24.125Y32.725
X22.025Y35.675
X22.025Y26.075
X14.725Y34.225
X17.975Y32.475
X16.475Y35.825
X19.725Y35.775
X15.475Y1.625
X19.475Y5.125
X8.025Y12.825
X8.025Y29.625
X22.775Y24.325
X23.925Y25.475
X21.475Y13.825
X25.725Y13.825
X21.425Y18.875
X23.875Y21.025
X20.675Y19.825
X21.475Y20.675
X26.725Y25.575
X21.525Y23.425
X24.625Y29.525
X25.025Y24.725
X25.575Y23.575
X21.475Y19.825
X35.025Y18.475
X33.025Y18.475
X32.775Y19.725
X32.025Y21.875
X37.975Y27.925
X32.725Y10.175
X13.675Y35.675
X13.775Y33.325
X36.575Y30.175
X22.925Y9.025
X26.325Y9.025
X28.675Y18.625
X27.475Y18.375
X25.325Y18.225
X23.025Y15.375
X23.875Y14.525
X30.375Y20.125
X32.975Y22.375
X22.175Y16.975
X21.175Y21.925
X20.725Y24.425
X8.975Y11.025
X8.975Y8.475
X5.975Y33.525
X5.975Y32.225
X20.225Y22.975
X25.275Y28.925
X9.925Y36.525
X14.675Y35.875
X14.375Y27.175
X16.975Y30.225
X2.625Y28.925
X3.475Y29.775
X7.975Y31.025
X12.725Y31.975
X7.525Y30.275
X17.575Y33.725
X17.925Y28.875
X18.875Y29.825
X16.875Y31.025
X17.725Y12.825
X18.725Y10.125
X5.175Y11.075
X8.275Y8.025
X22.625Y8.225
X24.375Y6.475
X7.125Y12.825
X11.625Y9.725
X14.025Y7.475
X14.325Y6.275
X20.925Y26.925
X5.825Y11.725
X31.925Y25.325
X2.675Y9.775
X11.825Y3.225
X18.025Y5.425
X36.525Y9.925
X36.525Y11.725
X24.675Y21.875
X34.275Y26.375
X32.975Y32.225
X27.525Y34.475
X25.975Y32.975
X23.025Y34.675
X18.275Y34.525
X16.725Y12.825
X12.625Y12.825
X4.825Y36.225
X15.475Y2.975
X17.975Y2.975
X20.475Y2.975
X22.975Y2.975
X25.475Y2.975
X27.975Y2.975
X30.475Y2.975
X32.975Y2.975
X35.475Y2.975
X22.975Y5.475
X25.475Y5.475
X27.975Y5.475
X30.475Y5.475
X35.475Y5.475
X20.475Y10.475
X27.975Y10.475
X30.475Y12.975
X35.475Y12.975
X37.975Y12.975
X20.475Y15.475
X25.475Y15.475
X30.475Y15.475
X30.475Y17.975
X27.975Y22.975
X27.975Y25.475
X27.975Y27.975
X32.975Y27.975
X35.475Y27.975
X30.475Y30.475
X20.475Y32.975
X22.975Y32.975
X30.475Y32.975
X27.975Y35.475
X30.475Y35.475
X35.475Y35.475
X22.975Y37.975
X25.475Y37.975
X27.975Y37.975
X30.475Y37.975
X32.975Y37.975
X35.475Y37.975
T2
X38.000Y5.980
X38.000Y8.520
X38.000Y31.480
X38.000Y34.020
X5.980Y38.000
X8.520Y38.000
X2.000Y5.980
X2.000Y8.520
T3
X37.600Y18.250
X37.600Y21.750
M30
