G04 Drone Design Studio PCB export*
%TF.GenerationSoftware,DroneDesignStudio,drone-design-studio,0.1*%
%TF.FileFunction,Profile,NP*%
%TF.FilePolarity,Positive*%
%FSLAX46Y46*%
%MOMM*%
%LPD*%
G01*
%ADD10C,0.1000*%
D10*
X38000000Y0D02*
X38390181Y38429D01*
X38390181Y38429D02*
X38765367Y152241D01*
X38765367Y152241D02*
X39111140Y337061D01*
X39111140Y337061D02*
X39414214Y585786D01*
X39414214Y585786D02*
X39662939Y888860D01*
X39662939Y888860D02*
X39847759Y1234633D01*
X39847759Y1234633D02*
X39961571Y1609819D01*
X39961571Y1609819D02*
X40000000Y2000000D01*
X40000000Y2000000D02*
X40000000Y38000000D01*
X40000000Y38000000D02*
X39961571Y38390181D01*
X39961571Y38390181D02*
X39847759Y38765367D01*
X39847759Y38765367D02*
X39662939Y39111140D01*
X39662939Y39111140D02*
X39414214Y39414214D01*
X39414214Y39414214D02*
X39111140Y39662939D01*
X39111140Y39662939D02*
X38765367Y39847759D01*
X38765367Y39847759D02*
X38390181Y39961571D01*
X38390181Y39961571D02*
X38000000Y40000000D01*
X38000000Y40000000D02*
X2000000Y40000000D01*
X2000000Y40000000D02*
X1609819Y39961571D01*
X1609819Y39961571D02*
X1234633Y39847759D01*
X1234633Y39847759D02*
X888860Y39662939D01*
X888860Y39662939D02*
X585786Y39414214D01*
X585786Y39414214D02*
X337061Y39111140D01*
X337061Y39111140D02*
X152241Y38765367D01*
X152241Y38765367D02*
X38429Y38390181D01*
X38429Y38390181D02*
X0Y38000000D01*
X0Y38000000D02*
X0Y2000000D01*
X0Y2000000D02*
X38429Y1609819D01*
X38429Y1609819D02*
X152241Y1234633D01*
X152241Y1234633D02*
X337061Y888860D01*
X337061Y888860D02*
X585786Y585786D01*
X585786Y585786D02*
X888860Y337061D01*
X888860Y337061D02*
X1234633Y152241D01*
X1234633Y152241D02*
X1609819Y38429D01*
X1609819Y38429D02*
X2000000Y0D01*
X2000000Y0D02*
X38000000Y0D01*
M02*
