G04 Drone Design Studio PCB export*
%TF.GenerationSoftware,DroneDesignStudio,drone-design-studio,0.1*%
%TF.FileFunction,Soldermask,Top*%
%TF.FilePolarity,Negative*%
%FSLAX46Y46*%
%MOMM*%
%LPD*%
G01*
%ADD10C,2.3000*%
%ADD11R,1.0000X1.6000*%
%ADD12R,1.6000X1.0000*%
%ADD13R,3.8000X3.8000*%
%ADD14R,2.7000X2.7000*%
%ADD15C,2.7000*%
%ADD16R,1.9000X1.9000*%
%ADD17C,1.9000*%
%ADD18R,0.7000X1.4250*%
%ADD19R,1.4250X0.7000*%
%ADD20R,1.0500X0.9000*%
%ADD21R,1.3200X1.0100*%
%ADD22R,0.9000X1.0500*%
%ADD23R,1.0100X1.3200*%
%ADD24R,0.6500X0.3500*%
%ADD25R,0.3500X0.6500*%
%ADD26R,1.2250X1.8500*%
%ADD27R,1.5000X1.1250*%
%ADD28R,1.1250X1.5000*%
%ADD29R,1.6500X0.7000*%
%ADD30R,1.9000X1.3000*%
%ADD31R,1.0000X1.0000*%
%ADD32C,1.0000*%
%ADD33R,1.5000X1.1000*%
D10*
X37600000Y37600000D03*
X2400000Y37600000D03*
X2400000Y2400000D03*
X37600000Y2400000D03*
D11*
X1050000Y11600000D03*
X2320000Y11600000D03*
X3590000Y11600000D03*
X4860000Y11600000D03*
X6130000Y11600000D03*
X7400000Y11600000D03*
X8670000Y11600000D03*
X9940000Y11600000D03*
X11210000Y11600000D03*
X12480000Y11600000D03*
X13750000Y11600000D03*
X15020000Y11600000D03*
X16290000Y11600000D03*
X17560000Y11600000D03*
D12*
X18960000Y13015000D03*
X18960000Y14285000D03*
X18960000Y15555000D03*
X18960000Y16825000D03*
X18960000Y18095000D03*
X18960000Y19365000D03*
X18960000Y20635000D03*
X18960000Y21905000D03*
X18960000Y23175000D03*
X18960000Y24445000D03*
X18960000Y25715000D03*
X18960000Y26985000D03*
D11*
X17560000Y28400000D03*
X16290000Y28400000D03*
X15020000Y28400000D03*
X13750000Y28400000D03*
X12480000Y28400000D03*
X11210000Y28400000D03*
X9940000Y28400000D03*
X8670000Y28400000D03*
X7400000Y28400000D03*
X6130000Y28400000D03*
X4860000Y28400000D03*
X3590000Y28400000D03*
X2320000Y28400000D03*
X1050000Y28400000D03*
D13*
X9810000Y18500000D03*
D14*
X37600000Y18250000D03*
D15*
X37600000Y21750000D03*
D16*
X38000000Y5980000D03*
D17*
X38000000Y8520000D03*
D16*
X38000000Y31480000D03*
D17*
X38000000Y34020000D03*
D16*
X5980000Y38000000D03*
D17*
X8520000Y38000000D03*
D16*
X2000000Y5980000D03*
D17*
X2000000Y8520000D03*
D18*
X33800000Y7112500D03*
X35700000Y7112500D03*
X34750000Y9387500D03*
X33800000Y30612500D03*
X35700000Y30612500D03*
X34750000Y32887500D03*
D19*
X7112500Y35700000D03*
X7112500Y33800000D03*
X9387500Y34750000D03*
D18*
X5550000Y5862500D03*
X7450000Y5862500D03*
X6500000Y8137500D03*
D20*
X32000000Y9075000D03*
X32000000Y7425000D03*
X32000000Y5825000D03*
X32000000Y4175000D03*
D21*
X38000000Y14135000D03*
X38000000Y10865000D03*
D20*
X32000000Y30175000D03*
X32000000Y31825000D03*
X32000000Y33675000D03*
X32000000Y35325000D03*
D21*
X38000000Y25865000D03*
X38000000Y29135000D03*
D22*
X9075000Y32000000D03*
X7425000Y32000000D03*
X5825000Y32000000D03*
X4175000Y32000000D03*
D23*
X14135000Y38000000D03*
X10865000Y38000000D03*
D20*
X9250000Y8325000D03*
X9250000Y6675000D03*
X9250000Y5075000D03*
X9250000Y3425000D03*
D21*
X11500000Y5365000D03*
X11500000Y8635000D03*
D24*
X22200000Y19750000D03*
X22200000Y19250000D03*
X22200000Y18750000D03*
X22200000Y18250000D03*
D25*
X22750000Y17700000D03*
X23250000Y17700000D03*
X23750000Y17700000D03*
D24*
X24300000Y18250000D03*
X24300000Y18750000D03*
X24300000Y19250000D03*
X24300000Y19750000D03*
D25*
X23750000Y20300000D03*
X23250000Y20300000D03*
X22750000Y20300000D03*
D18*
X33050000Y18862500D03*
X34000000Y18862500D03*
X34950000Y18862500D03*
X34950000Y21137500D03*
X33050000Y21137500D03*
D25*
X23500000Y13800000D03*
X23000000Y13800000D03*
X22500000Y13800000D03*
D24*
X22200000Y13250000D03*
X22200000Y12750000D03*
D25*
X22500000Y12200000D03*
X23000000Y12200000D03*
X23500000Y12200000D03*
D24*
X23800000Y12750000D03*
X23800000Y13250000D03*
D26*
X31787500Y16500000D03*
X34712500Y16500000D03*
X31787500Y23500000D03*
X34712500Y23500000D03*
D20*
X31250000Y19175000D03*
X31250000Y20825000D03*
D27*
X29250000Y19087500D03*
X29250000Y20912500D03*
D28*
X10837500Y30750000D03*
X12662500Y30750000D03*
D20*
X2500000Y30425000D03*
X2500000Y32075000D03*
D22*
X15325000Y9500000D03*
X13675000Y9500000D03*
X13675000Y7750000D03*
X15325000Y7750000D03*
X14425000Y30500000D03*
X16075000Y30500000D03*
D20*
X27250000Y18175000D03*
X27250000Y19825000D03*
D22*
X22425000Y23250000D03*
X24075000Y23250000D03*
X22175000Y9250000D03*
X23825000Y9250000D03*
D20*
X26750000Y12175000D03*
X26750000Y13825000D03*
D22*
X27075000Y9250000D03*
X25425000Y9250000D03*
X3825000Y34000000D03*
X2175000Y34000000D03*
D29*
X24950000Y33750000D03*
X24950000Y32750000D03*
X24950000Y31750000D03*
X24950000Y30750000D03*
X24950000Y29750000D03*
X24950000Y28750000D03*
X24950000Y27750000D03*
X24950000Y26750000D03*
D30*
X22150000Y35050000D03*
X22150000Y25450000D03*
D22*
X14325000Y32750000D03*
X12675000Y32750000D03*
X12675000Y34500000D03*
X14325000Y34500000D03*
X15925000Y32750000D03*
X17575000Y32750000D03*
D20*
X16000000Y36075000D03*
X16000000Y34425000D03*
D31*
X19250000Y36925000D03*
D32*
X19250000Y35655000D03*
X19250000Y34385000D03*
X19250000Y33115000D03*
X19250000Y31845000D03*
X19250000Y30575000D03*
D33*
X14750000Y5850000D03*
X14750000Y1650000D03*
X18750000Y9350000D03*
X18750000Y5150000D03*
M02*
